<svg width="31" height="31" viewBox="0 0 31 31" fill="none" xmlns="http://www.w3.org/2000/svg">
<path d="M15.5093 0C9.03642 0 7.14335 0.00667749 6.77537 0.0372031C5.44703 0.14762 4.62045 0.356769 3.71994 0.805114C3.02596 1.14972 2.47865 1.54918 1.93849 2.10913C0.954748 3.13031 0.358544 4.38663 0.142718 5.88001C0.0377861 6.60499 0.00726044 6.75285 0.00105992 10.456C-0.0013249 11.6904 0.00105992 13.3149 0.00105992 15.4939C0.00105992 21.9615 0.00821437 23.8527 0.039217 24.22C0.146534 25.5125 0.349243 26.3258 0.77851 27.2153C1.59889 28.9181 3.16571 30.1963 5.01156 30.6733C5.65069 30.8378 6.3566 30.9285 7.26283 30.9714C7.64678 30.9881 11.5603 31 15.4761 31C19.392 31 23.3079 30.9952 23.6823 30.9762C24.7316 30.9268 25.3409 30.845 26.0146 30.6709C26.9299 30.4362 27.7829 30.0045 28.514 29.406C29.2451 28.8075 29.8368 28.0566 30.2477 27.2058C30.6686 26.3377 30.8821 25.4935 30.9786 24.2684C30.9996 24.0013 31.0084 19.7427 31.0084 15.4899C31.0084 11.2363 30.9989 6.98561 30.9779 6.71851C30.8801 5.47363 30.6667 4.63656 30.2322 3.75179C29.8757 3.02753 29.4798 2.48665 28.905 1.93361C27.8796 0.953927 26.6252 0.357723 25.1301 0.142135C24.4058 0.0374416 24.2616 0.00643901 20.5556 0H15.5093Z" fill="url(#paint0_radial_327_211)"/>
<path d="M15.5093 0C9.03642 0 7.14335 0.00667749 6.77537 0.0372031C5.44703 0.14762 4.62045 0.356769 3.71994 0.805114C3.02596 1.14972 2.47865 1.54918 1.93849 2.10913C0.954748 3.13031 0.358544 4.38663 0.142718 5.88001C0.0377861 6.60499 0.00726044 6.75285 0.00105992 10.456C-0.0013249 11.6904 0.00105992 13.3149 0.00105992 15.4939C0.00105992 21.9615 0.00821437 23.8527 0.039217 24.22C0.146534 25.5125 0.349243 26.3258 0.77851 27.2153C1.59889 28.9181 3.16571 30.1963 5.01156 30.6733C5.65069 30.8378 6.3566 30.9285 7.26283 30.9714C7.64678 30.9881 11.5603 31 15.4761 31C19.392 31 23.3079 30.9952 23.6823 30.9762C24.7316 30.9268 25.3409 30.845 26.0146 30.6709C26.9299 30.4362 27.7829 30.0045 28.514 29.406C29.2451 28.8075 29.8368 28.0566 30.2477 27.2058C30.6686 26.3377 30.8821 25.4935 30.9786 24.2684C30.9996 24.0013 31.0084 19.7427 31.0084 15.4899C31.0084 11.2363 30.9989 6.98561 30.9779 6.71851C30.8801 5.47363 30.6667 4.63656 30.2322 3.75179C29.8757 3.02753 29.4798 2.48665 28.905 1.93361C27.8796 0.953927 26.6252 0.357723 25.1301 0.142135C24.4058 0.0374416 24.2616 0.00643901 20.5556 0H15.5093Z" fill="url(#paint1_radial_327_211)"/>
<path d="M15.5022 4.0542C12.3933 4.0542 12.0032 4.06779 10.7821 4.12336C9.56349 4.17916 8.73166 4.3721 8.00382 4.65517C7.25093 4.94755 6.61228 5.33866 5.97601 5.97517C5.33926 6.61144 4.94815 7.25009 4.65482 8.00274C4.37102 8.73082 4.17785 9.56289 4.123 10.7811C4.06863 12.0021 4.05432 12.3925 4.05432 15.5013C4.05432 18.6102 4.06815 18.9991 4.12348 20.2202C4.17952 21.4388 4.37246 22.2706 4.6553 22.9985C4.94791 23.7514 5.33902 24.39 5.97553 25.0263C6.61156 25.663 7.25021 26.0551 8.00262 26.3475C8.73095 26.6305 9.56301 26.8235 10.7814 26.8793C12.0024 26.9348 12.3924 26.9484 15.501 26.9484C18.6101 26.9484 18.999 26.9348 20.22 26.8793C21.4387 26.8235 22.2715 26.6305 22.9998 26.3475C23.7524 26.0551 24.3901 25.663 25.0262 25.0263C25.6629 24.39 26.054 23.7514 26.3473 22.9987C26.6288 22.2706 26.8219 21.4386 26.8792 20.2204C26.934 18.9994 26.9483 18.6102 26.9483 15.5013C26.9483 12.3925 26.934 12.0023 26.8792 10.7813C26.8219 9.56265 26.6288 8.73082 26.3473 8.00298C26.054 7.25009 25.6629 6.61144 25.0262 5.97517C24.3894 5.33842 23.7527 4.94731 22.9991 4.65517C22.2693 4.3721 21.437 4.17916 20.2184 4.12336C18.9973 4.06779 18.6086 4.0542 15.4988 4.0542H15.5022ZM14.4753 6.11707C14.78 6.11659 15.1201 6.11707 15.5022 6.11707C18.5585 6.11707 18.9208 6.12804 20.1277 6.18289C21.2438 6.23392 21.8496 6.42041 22.2531 6.5771C22.7873 6.78458 23.1682 7.0326 23.5686 7.43325C23.9692 7.8339 24.2172 8.21547 24.4252 8.74966C24.5819 9.1527 24.7686 9.75844 24.8194 10.8745C24.8742 12.0813 24.8862 12.4437 24.8862 15.4987C24.8862 18.5536 24.8742 18.9161 24.8194 20.1229C24.7684 21.239 24.5819 21.8447 24.4252 22.2477C24.2177 22.7819 23.9692 23.1623 23.5686 23.5627C23.1679 23.9634 22.7875 24.2114 22.2531 24.4189C21.8501 24.5763 21.2438 24.7623 20.1277 24.8133C18.921 24.8682 18.5585 24.8801 15.5022 24.8801C12.4455 24.8801 12.0833 24.8682 10.8766 24.8133C9.76047 24.7618 9.15473 24.5753 8.75098 24.4186C8.21678 24.2111 7.83521 23.9631 7.43456 23.5625C7.03391 23.1618 6.78589 22.7812 6.57793 22.2468C6.42125 21.8437 6.23452 21.238 6.18372 20.1219C6.12887 18.9152 6.1179 18.5527 6.1179 15.4958C6.1179 12.439 6.12887 12.0784 6.18372 10.8717C6.23476 9.75558 6.42125 9.14984 6.57793 8.74633C6.78541 8.21213 7.03391 7.83056 7.43456 7.42991C7.83521 7.02926 8.21678 6.78124 8.75098 6.57328C9.15449 6.41588 9.76047 6.22987 10.8766 6.17859C11.9326 6.1309 12.3418 6.11659 14.4753 6.1142V6.11707ZM21.6125 8.01776C21.3408 8.01776 21.0752 8.09834 20.8493 8.2493C20.6234 8.40026 20.4474 8.61482 20.3434 8.86585C20.2394 9.11688 20.2123 9.39311 20.2653 9.65958C20.3184 9.92606 20.4492 10.1708 20.6414 10.3629C20.8335 10.555 21.0783 10.6858 21.3448 10.7387C21.6113 10.7917 21.8875 10.7644 22.1385 10.6604C22.3895 10.5563 22.604 10.3802 22.7549 10.1542C22.9058 9.92827 22.9863 9.66265 22.9862 9.39094C22.9862 8.63257 22.3709 8.01729 21.6125 8.01729V8.01776ZM15.5022 9.62275C12.2557 9.62275 9.62358 12.2549 9.62358 15.5013C9.62358 18.7478 12.2557 21.3787 15.5022 21.3787C18.7486 21.3787 21.38 18.7478 21.38 15.5013C21.38 12.2549 18.7484 9.62275 15.5019 9.62275H15.5022ZM15.5022 11.6856C17.6094 11.6856 19.3179 13.3939 19.3179 15.5013C19.3179 17.6085 17.6094 19.317 15.5022 19.317C13.3947 19.317 11.6865 17.6085 11.6865 15.5013C11.6865 13.3939 13.3947 11.6856 15.5022 11.6856V11.6856Z" fill="white"/>
<defs>
<radialGradient id="paint0_radial_327_211" cx="0" cy="0" r="1" gradientUnits="userSpaceOnUse" gradientTransform="translate(8.23666 33.3877) rotate(-90) scale(30.7233 28.5829)">
<stop stop-color="#FFDD55"/>
<stop offset="0.1" stop-color="#FFDD55"/>
<stop offset="0.5" stop-color="#FF543E"/>
<stop offset="1" stop-color="#C837AB"/>
</radialGradient>
<radialGradient id="paint1_radial_327_211" cx="0" cy="0" r="1" gradientTransform="matrix(2.6963 13.4663 -55.5226 11.1172 -5.19408 2.23319)" gradientUnits="userSpaceOnUse">
<stop stop-color="#3771C8"/>
<stop offset="0.128" stop-color="#3771C8"/>
<stop offset="1" stop-color="#6600FF" stop-opacity="0"/>
</radialGradient>
</defs>
</svg>
