<svg width="34" height="34" viewBox="0 0 34 34" fill="none" xmlns="http://www.w3.org/2000/svg">
<g filter="url(#filter0_i_278_182)">
<path d="M16.6155 12.2312C14.2454 12.2312 12.2308 14.2458 12.2308 16.6158C12.2308 18.9859 14.2454 21.0004 16.6155 21.0004C18.9855 21.0004 21.0001 18.9859 21.0001 16.6158C21.0001 14.2458 18.9855 12.2312 16.6155 12.2312Z" fill="white"/>
<path d="M22.2357 3.46143H11.1147C6.8098 3.46143 3.46155 6.80968 3.46155 10.995V22.116C3.46155 26.4209 6.8098 29.7691 11.1147 29.7691H22.2357C26.421 29.7691 29.7692 26.4209 29.7692 22.116V10.995C29.7692 6.80968 26.421 3.46143 22.2357 3.46143ZM16.6154 23.5509C12.7888 23.5509 9.79931 20.4418 9.79931 16.7349C9.79931 13.0279 12.7888 9.79919 16.6154 9.79919C20.442 9.79919 23.4315 12.9083 23.4315 16.6153C23.4315 20.3223 20.442 23.5509 16.6154 23.5509ZM23.6706 11.2342C22.8336 11.2342 22.1161 10.5167 22.1161 9.67961C22.1161 8.84254 22.8336 8.12506 23.6706 8.12506C24.5077 8.12506 25.2252 8.84254 25.2252 9.67961C25.2252 10.5167 24.5077 11.2342 23.6706 11.2342Z" fill="white"/>
</g>
<defs>
<filter id="filter0_i_278_182" x="0" y="-2" width="33.2307" height="35.2307" filterUnits="userSpaceOnUse" color-interpolation-filters="sRGB">
<feFlood flood-opacity="0" result="BackgroundImageFix"/>
<feBlend mode="normal" in="SourceGraphic" in2="BackgroundImageFix" result="shape"/>
<feColorMatrix in="SourceAlpha" type="matrix" values="0 0 0 0 0 0 0 0 0 0 0 0 0 0 0 0 0 0 127 0" result="hardAlpha"/>
<feOffset dy="-2"/>
<feGaussianBlur stdDeviation="1.5"/>
<feComposite in2="hardAlpha" operator="arithmetic" k2="-1" k3="1"/>
<feColorMatrix type="matrix" values="0 0 0 0 0 0 0 0 0 0 0 0 0 0 0 0 0 0 0.22 0"/>
<feBlend mode="normal" in2="shape" result="effect1_innerShadow_278_182"/>
</filter>
</defs>
</svg>
